<?xml version="1.0" encoding="UTF-8" standalone="no"?>
<svg
   xmlns:dc="http://purl.org/dc/elements/1.1/"
   xmlns:cc="http://creativecommons.org/ns#"
   xmlns:rdf="http://www.w3.org/1999/02/22-rdf-syntax-ns#"
   xmlns:svg="http://www.w3.org/2000/svg"
   xmlns="http://www.w3.org/2000/svg"
   xmlns:sodipodi="http://sodipodi.sourceforge.net/DTD/sodipodi-0.dtd"
   xmlns:inkscape="http://www.inkscape.org/namespaces/inkscape"
   version="1.1"
   x="0px"
   y="0px"
   viewBox="0 0 66 82.5"
   enable-background="new 0 0 66 66"
   xml:space="preserve"
   id="svg24"
   sodipodi:docname="icon.svg"
   inkscape:version="0.92.3 (2405546, 2018-03-11)"><metadata
     id="metadata30"><rdf:RDF><cc:Work
         rdf:about=""><dc:format>image/svg+xml</dc:format><dc:type
           rdf:resource="http://purl.org/dc/dcmitype/StillImage" /></cc:Work></rdf:RDF></metadata><defs
     id="defs28" /><sodipodi:namedview
     pagecolor="#ffffff"
     bordercolor="#666666"
     borderopacity="1"
     objecttolerance="10"
     gridtolerance="10"
     guidetolerance="10"
     inkscape:pageopacity="0"
     inkscape:pageshadow="2"
     inkscape:window-width="1916"
     inkscape:window-height="1035"
     id="namedview26"
     showgrid="false"
     inkscape:zoom="2.8606061"
     inkscape:cx="-6.5021186"
     inkscape:cy="41.25"
     inkscape:window-x="0"
     inkscape:window-y="43"
     inkscape:window-maximized="0"
     inkscape:current-layer="svg24" /><g
     id="g18"><g
       id="g10"><g
         id="g4"><path
           d="m 28.6,49.2 c 0,1.6 1.3,3 3,3 H 36 c 1.6,0 3,-1.3 3,-3 v -2 H 28.6 Z"
           id="path2"
           inkscape:connector-curvature="0" /></g><g
         id="g8"><path
           d="m 60,9.1 c -1.5,0 -2.8,1 -3.1,2.4 h -7.8 c -0.2,0 -0.4,0.1 -0.5,0.2 l -4.8,4.8 c -0.1,0.1 -0.2,0.3 -0.2,0.5 v 4.5 l -2.4,2.4 C 41.1,23.8 41,23.7 40.9,23.5 40.3,22.9 39.6,22.4 38.8,22 V 14.9 L 43,11.6 c 0.2,-0.1 0.3,-0.4 0.3,-0.6 V 8.9 c 1.4,-0.3 2.4,-1.6 2.4,-3.1 0,-1.8 -1.4,-3.2 -3.2,-3.2 -1.8,0 -3.2,1.4 -3.2,3.2 0,1.5 1,2.7 2.4,3.1 v 1.9 l -4.2,3.3 c -0.2,0.1 -0.3,0.4 -0.3,0.6 v 6.8 c -1,-0.4 -2,-0.5 -3.1,-0.6 V 7.3 C 35.5,7 36.5,5.7 36.5,4.2 36.5,2.4 35.1,1 33.3,1 c -1.7,0 -3.2,1.4 -3.2,3.2 0,1.5 1,2.8 2.4,3.1 V 21 c -0.8,0.1 -1.5,0.3 -2.2,0.5 v -6.7 c 0,-0.4 -0.3,-0.7 -0.7,-0.7 L 25,13.4 v -1.5 c 1.5,-0.2 2.7,-1.5 2.7,-3.1 0,-1.8 -1.4,-3.2 -3.2,-3.2 -1.8,0 -3.2,1.4 -3.2,3.2 0,1.4 0.9,2.6 2.2,3 v 2.3 c 0,0.4 0.3,0.7 0.7,0.8 l 4.8,0.5 v 6.8 c -1.8,1 -3.3,2.5 -4.2,4.3 L 22.4,24 v -4.5 c 0,-0.2 -0.1,-0.4 -0.2,-0.5 L 17.4,14.2 C 17.3,14.1 17.1,14 16.9,14 H 9.1 C 8.8,12.6 7.5,11.6 6,11.6 4.2,11.6 2.8,13 2.8,14.8 2.8,16.6 4.2,18 6,18 7.5,18 8.8,17 9.1,15.6 h 7.4 l 4.4,4.4 v 4.5 c 0,0.2 0.1,0.4 0.2,0.5 l 3,3 c -1,3 -0.5,6.4 1.5,9.2 2.1,2.9 3,5.4 3,8.6 H 31 v -7.6 c 0,-0.4 0.3,-0.8 0.8,-0.8 0.4,0 0.8,0.3 0.8,0.8 v 7.6 H 35 v -7.6 c 0,-0.4 0.3,-0.8 0.8,-0.8 0.5,0 0.8,0.3 0.8,0.8 v 7.6 H 39 v -0.3 c 0,-3.4 1.2,-5.7 3.1,-8.5 2.5,-3.5 2.5,-8.2 0,-11.7 l 2.8,-2.8 C 45,22.4 45.1,22.2 45.1,22 v -4.5 l 4.4,-4.4 H 57 c 0.3,1.4 1.6,2.4 3.1,2.4 1.8,0 3.2,-1.4 3.2,-3.2 C 63.2,10.6 61.8,9.1 60,9.1 Z M 31.4,34.2 c -0.3,0.3 -0.8,0.3 -1.1,0 l -2.5,-2.5 c -0.3,-0.3 -0.3,-0.8 0,-1.1 0.3,-0.3 0.8,-0.3 1.1,0 l 2.5,2.5 c 0.3,0.3 0.3,0.8 0,1.1 z m 4.2,0 c -0.3,0.3 -0.8,0.3 -1.1,0 L 32,31.7 c -0.3,-0.3 -0.3,-0.8 0,-1.1 0.3,-0.3 0.8,-0.3 1.1,0 l 2.5,2.5 c 0.3,0.3 0.3,0.8 0,1.1 z m 4.2,0 c -0.3,0.3 -0.8,0.3 -1.1,0 l -2.5,-2.5 c -0.3,-0.3 -0.3,-0.8 0,-1.1 0.3,-0.3 0.8,-0.3 1.1,0 l 2.5,2.5 c 0.3,0.3 0.3,0.8 0,1.1 z"
           id="path6"
           inkscape:connector-curvature="0" /></g></g><g
       id="g16"><g
         id="g14"><path
           d="m 54.9,34.4 c 0,6.8 -3.4,13.8 -9.9,17.7 v 12.2 c 0,0.4 -0.3,0.8 -0.8,0.8 H 24.9 c -0.4,0 -0.8,-0.3 -0.8,-0.8 V 59 h -7.9 c -0.4,0 -0.8,-0.3 -0.8,-0.8 V 48.8 L 10,46.7 C 9.6,46.5 9.4,46.1 9.6,45.6 l 4.1,-7.5 C 12.5,31.8 14.4,25 19,20.1 l 0.4,0.4 v 3.9 c 0,0.6 0.2,1.2 0.7,1.6 l 2.4,2.4 c -0.8,3.2 -0.2,6.7 2,9.6 3.5,4.7 2.6,7.9 2.7,9.2 v 0 2 c 0,2.5 2,4.5 4.5,4.5 H 36 c 2.5,0 4.5,-2 4.5,-4.5 v -2 0 -1.8 c 0,-3 1,-5 2.8,-7.6 2.7,-3.7 2.8,-8.6 0.7,-12.3 l 1.9,-1.9 c 0.4,-0.4 0.7,-1 0.7,-1.6 v -4 l 0.2,-0.2 c 5.1,4 8.1,10.1 8.1,16.6 z"
           id="path12"
           inkscape:connector-curvature="0" /></g></g></g></svg>